# xmcd
#
# Track frame offsets:
#	150
#	10727
#	22462
#	35522
#	44052
#	55882
#	69665
#	84470
#	96120
#	109482
#	119812
#	132570
#	144980
#
# Disc length: 2078
#
# Revision: 3
# Processed by: cddbd v1.5.1PL0 Copyright (c) Steve Scherf et al.
# Submitted via: dBpowerAMP V4.0
# Normalized: r2:TSWAP
#
DISCID=c7081c0d
DTITLE=Various Artist - Fonzie's Make Out Music
DYEAR=1996
DGENRE=Rock and Roll
TTITLE0=Fats Domino - Blueberry Hill
TTITLE1=The Platters - Only You (and You Alone)
TTITLE2=Lenny Welch - Since I Fell for You
TTITLE3=The Clovers - Love Potion #9
TTITLE4=The Skyliners - Since I Don't Have You
TTITLE5=Jay and The Americans - This Magic Moment
TTITLE6=The Flamingos - I Only Have Eyes for You
TTITLE7=The Shirelles - Will You Love Me Tomorrow
TTITLE8=The McGuire Sisters - Goodnight My Love (Pleasant Dreams)
TTITLE9=Tab Hunter - Young Love
TTITLE10=Bobby Vinton - Blue Velvet
TTITLE11=James Brown - Please, Please, Please
TTITLE12=The Heyettes - The Fonz Song
EXTD=
EXTT0=
EXTT1=
EXTT2=
EXTT3=
EXTT4=
EXTT5=
EXTT6=
EXTT7=
EXTT8=
EXTT9=
EXTT10=
EXTT11=
EXTT12=
PLAYORDER=
